<svg width="24" height="32" viewBox="0 0 33 32" fill="none" xmlns="http://www.w3.org/2000/svg"><path fill-rule="evenodd" clip-rule="evenodd" d="M3.98242 11.7352C3.98242 9.98081 5.40464 8.55859 7.15902 8.55859H25.7391C27.4935 8.55859 28.9158 9.98081 28.9158 11.7352V19.4669C28.9158 19.7445 28.7681 20.001 28.5282 20.1405L21.8274 24.0364C21.7084 24.1055 21.5733 24.1419 21.4358 24.1419H7.15902C5.40463 24.1419 3.98242 22.7197 3.98242 20.9653V11.7352ZM7.15902 10.1169C6.26528 10.1169 5.54076 10.8415 5.54076 11.7352V20.9653C5.54076 21.8591 6.26528 22.5836 7.15902 22.5836H21.2257L27.3574 19.0186V11.7352C27.3574 10.8415 26.6329 10.1169 25.7391 10.1169H7.15902Z" fill="currentColor"></path><path d="M20.8252 18.688H28.2929L20.3457 23.1274V19.1675C20.3457 18.9027 20.5604 18.688 20.8252 18.688Z" fill="currentColor"></path></svg>