<svg xmlns="http://www.w3.org/2000/svg" width="22" height="23" fill="none" xmlns:v="https://vecta.io/nano"><path d="M19.292.5H8.971c-.312 0-.611.124-.831.345L.593 8.412A2.03 2.03 0 0 0 0 9.846v11.3c0 .748.606 1.354 1.354 1.354h11.417a2.03 2.03 0 0 0 1.428-.587l7.453-7.372c.223-.22.348-.521.348-.834V3.205C22 1.71 20.788.5 19.292.5z" fill="#f66f75"/><path d="M.458 22.162a1.35 1.35 0 0 0 .896.338h11.417a2.03 2.03 0 0 0 1.428-.587l7.453-7.372c.223-.22.348-.521.348-.834V3.205a2.69 2.69 0 0 0-.593-1.69C18.38 3.365.458 22.162.458 22.162z" fill="#5053f0"/><path d="M19.849 2.141c.374 0 .677.303.677.677v9.667c0 .345-.132.677-.368.928l-2.216 2.355H7.423l-1.666 1.727v3.312a.34.34 0 0 1-.338.338H1.696a.34.34 0 0 1-.338-.338v-3.723a.34.34 0 0 1 .338-.338H4.6l2.135-2.214V2.818c0-.374.303-.677.677-.677h12.437z" fill="#fff"/></svg>