<svg width="20" height="20" viewBox="0 0 20 20" fill="none" xmlns="http://www.w3.org/2000/svg"><path d="M14.6163 5.38484V4.61561C14.6163 4.20758 14.4542 3.81627 14.1657 3.52775C13.8772 3.23924 13.4859 3.07715 13.0778 3.07715H11.5394C11.1313 3.07715 10.74 3.23924 10.4515 3.52775C10.163 3.81627 10.0009 4.20758 10.0009 4.61561V5.38484H8.46244V4.61561C8.46244 4.20758 8.30035 3.81627 8.01183 3.52775C7.72332 3.23924 7.332 3.07715 6.92398 3.07715H5.38552C4.97749 3.07715 4.58618 3.23924 4.29766 3.52775C4.00914 3.81627 3.84706 4.20758 3.84706 4.61561V5.38484H2.30859V16.1541H10.7701V15.0002H3.46244V6.53869H15.0009V10.7695H16.1547V5.38484H14.6163Z" fill="currentColor"></path><path d="M16.3456 18.8462H15.1912C15.1189 18.8462 15.0487 18.8223 14.9924 18.7783C14.936 18.7343 14.8969 18.6729 14.8814 18.6044L14.7523 18.0247C14.5801 17.9515 14.4169 17.86 14.2655 17.7518L13.6829 17.9318C13.614 17.9531 13.5396 17.9509 13.4721 17.9256C13.4046 17.9002 13.3481 17.8532 13.3119 17.7924L12.7334 16.8228C12.6976 16.762 12.6842 16.6911 12.6953 16.6218C12.7064 16.5526 12.7415 16.489 12.7946 16.4416L13.2466 16.0416C13.226 15.8604 13.226 15.6776 13.2466 15.4964L12.7946 15.0973C12.7414 15.0499 12.7063 14.9863 12.6952 14.9169C12.6841 14.8476 12.6976 14.7767 12.7334 14.7158L13.3106 13.7456C13.3468 13.6848 13.4033 13.6378 13.4708 13.6124C13.5383 13.5871 13.6127 13.5849 13.6817 13.6062L14.2642 13.7862C14.3416 13.7308 14.4222 13.6792 14.5053 13.6324C14.5855 13.5887 14.668 13.549 14.7523 13.5136L14.8817 12.9345C14.8971 12.866 14.9362 12.8046 14.9925 12.7606C15.0488 12.7165 15.1189 12.6925 15.1912 12.6924H16.3456C16.4179 12.6925 16.4881 12.7165 16.5443 12.7606C16.6006 12.8046 16.6397 12.866 16.6551 12.9345L16.7858 13.5139C16.9578 13.5875 17.121 13.6791 17.2726 13.7868L17.8555 13.6068C17.9244 13.5856 17.9987 13.5878 18.0662 13.6132C18.1336 13.6385 18.1901 13.6855 18.2262 13.7462L18.8034 14.7164C18.877 14.8416 18.8516 15.0001 18.7422 15.0976L18.2903 15.4976C18.3108 15.6788 18.3108 15.8616 18.2903 16.0428L18.7422 16.4428C18.8516 16.5407 18.877 16.6988 18.8034 16.8241L18.2262 17.7942C18.1901 17.8551 18.1335 17.902 18.066 17.9274C17.9985 17.9528 17.9241 17.9549 17.8552 17.9336L17.2726 17.7536C17.1214 17.8617 16.9582 17.9532 16.7861 18.0262L16.6551 18.6044C16.6397 18.6729 16.6006 18.7342 16.5443 18.7782C16.488 18.8222 16.4179 18.8462 16.3456 18.8462ZM15.7672 14.5385C15.4307 14.5385 15.1081 14.6682 14.8702 14.899C14.6323 15.1298 14.4986 15.4429 14.4986 15.7693C14.4986 16.0957 14.6323 16.4088 14.8702 16.6396C15.1081 16.8704 15.4307 17.0001 15.7672 17.0001C16.1036 17.0001 16.4263 16.8704 16.6642 16.6396C16.9021 16.4088 17.0357 16.0957 17.0357 15.7693C17.0357 15.4429 16.9021 15.1298 16.6642 14.899C16.4263 14.6682 16.1036 14.5385 15.7672 14.5385Z" fill="currentColor"></path></svg>