<svg width="24" height="32" viewBox="0 0 33 32" fill="none" xmlns="http://www.w3.org/2000/svg"><path fill-rule="evenodd" clip-rule="evenodd" d="M4.02148 6.40479C4.02148 4.62847 5.46148 3.18848 7.23779 3.18848H26.0502C27.8265 3.18848 29.2665 4.62847 29.2665 6.40479V20.5444C29.2665 20.7536 29.1834 20.9543 29.0354 21.1023L21.9353 28.2024C21.7873 28.3504 21.5866 28.4335 21.3774 28.4335H7.23779C5.46148 28.4335 4.02148 26.9935 4.02148 25.2172V6.40479ZM7.23779 4.76629C6.33288 4.76629 5.5993 5.49987 5.5993 6.40479V25.2172C5.5993 26.1221 6.33288 26.8557 7.23779 26.8557H21.0506L27.6887 20.2176V6.40479C27.6887 5.49987 26.9551 4.76629 26.0502 4.76629H7.23779Z" fill="currentColor"></path><path d="M21.548 20.229H28.0049L21.0625 27.1714V20.7145C21.0625 20.4464 21.2799 20.229 21.548 20.229Z" fill="currentColor"></path></svg>