<svg width="26" height="26" viewBox="0 0 26 26" fill="none" xmlns="http://www.w3.org/2000/svg"><path d="M20.778 5.22266H5.22244C4.92775 5.22266 4.64514 5.33972 4.43676 5.54809C4.22839 5.75647 4.11133 6.03908 4.11133 6.33377V19.6671C4.11133 19.9618 4.22839 20.2444 4.43676 20.4528C4.64514 20.6611 4.92775 20.7782 5.22244 20.7782H20.778C21.0727 20.7782 21.3553 20.6611 21.5637 20.4528C21.772 20.2444 21.8891 19.9618 21.8891 19.6671V6.33377C21.8891 6.03908 21.772 5.75647 21.5637 5.54809C21.3553 5.33972 21.0727 5.22266 20.778 5.22266V5.22266ZM5.22244 19.6671V6.33377H20.778V19.6671H5.22244Z" fill="currentColor"></path><path d="M7.95573 10.7786C8.28536 10.7786 8.6076 10.6809 8.88168 10.4978C9.15576 10.3146 9.36938 10.0543 9.49553 9.74979C9.62167 9.44524 9.65468 9.11013 9.59037 8.78683C9.52606 8.46353 9.36733 8.16656 9.13424 7.93347C8.90115 7.70038 8.60418 7.54165 8.28088 7.47734C7.95758 7.41303 7.62247 7.44603 7.31792 7.57218C7.01338 7.69833 6.75308 7.91195 6.56995 8.18603C6.38681 8.46011 6.28906 8.78234 6.28906 9.11198C6.28906 9.55401 6.46466 9.97793 6.77722 10.2905C7.08978 10.6031 7.5137 10.7786 7.95573 10.7786V10.7786ZM7.95573 8.22309C8.13177 8.22199 8.30417 8.27319 8.45107 8.37019C8.59798 8.46719 8.71278 8.60563 8.78091 8.76795C8.84904 8.93027 8.86743 9.10917 8.83377 9.28196C8.8001 9.45475 8.71588 9.61366 8.59179 9.73853C8.4677 9.8634 8.30933 9.94861 8.13675 9.98336C7.96417 10.0181 7.78516 10.0008 7.62242 9.93372C7.45967 9.86661 7.32052 9.75269 7.22259 9.60639C7.12467 9.4601 7.0724 9.28802 7.0724 9.11198C7.07385 8.87816 7.16739 8.65432 7.33273 8.48898C7.49807 8.32364 7.7219 8.2301 7.95573 8.22865V8.22309Z" fill="currentColor"></path><path d="M15.6557 11.5395L12.6557 14.5395L10.4335 12.3173C10.3294 12.2138 10.1886 12.1557 10.0418 12.1557C9.89507 12.1557 9.75426 12.2138 9.65017 12.3173L6.28906 15.7228V17.295L10.0613 13.5228L11.8891 15.3228L9.80573 17.4061H11.3335L16.028 12.7117L19.6668 16.3339V14.7673L16.4391 11.5395C16.335 11.436 16.1942 11.3779 16.0474 11.3779C15.9006 11.3779 15.7598 11.436 15.6557 11.5395V11.5395Z" fill="currentColor"></path></svg>