<svg width="16" height="16" viewBox="0 0 16 16" fill="none" xmlns="http://www.w3.org/2000/svg"><path fill-rule="evenodd" clip-rule="evenodd" d="M8.26626 0.934143C8.14635 0.716454 7.87267 0.637187 7.65498 0.757095L3.39508 3.10355L3.32773 3.14893C3.16224 3.28358 3.11145 3.52132 3.21803 3.71482C3.33794 3.93251 3.61162 4.01178 3.82931 3.89187L8.08921 1.54542L8.15656 1.50004C8.32205 1.36538 8.37284 1.12764 8.26626 0.934143ZM9.89067 1.77525C10.1059 1.65095 10.3811 1.72464 10.5054 1.93985C10.6159 2.13115 10.57 2.36987 10.4072 2.50786L10.3408 2.55459L5.87046 5.13661C5.65525 5.26091 5.38002 5.18722 5.25572 4.97201C5.14523 4.78071 5.19118 4.54199 5.3539 4.404L5.42032 4.35727L9.89067 1.77525ZM12.5202 3.27092C12.3954 3.05602 12.12 2.983 11.9051 3.10783L7.60686 5.60456L7.54056 5.65145C7.37817 5.78984 7.33281 6.02867 7.44377 6.2197C7.5686 6.4346 7.84401 6.50762 8.05891 6.38279L12.3572 3.88607L12.4235 3.83917C12.5858 3.70078 12.6312 3.46195 12.5202 3.27092ZM13.7192 4.50915C14.3857 4.10894 15.234 4.58904 15.234 5.36648V10.4677C15.234 11.17 14.8656 11.8208 14.2635 12.1823L9.32965 15.1448C8.9964 15.3449 8.57227 15.1049 8.57227 14.7162V8.73156C8.57227 8.02926 8.94062 7.37843 9.54271 7.01691L13.7192 4.50915ZM13.3263 7.83008L11.0176 9.15949V10.5393L13.3263 9.15949V7.83008ZM0.800781 5.36648C0.800781 4.58904 1.64904 4.10894 2.31556 4.50915L6.49204 7.01691C7.09413 7.37843 7.46249 8.02926 7.46249 8.73156V14.7162C7.46249 15.1049 7.03836 15.3449 6.7051 15.1448L1.77123 12.1823C1.16913 11.8208 0.800781 11.17 0.800781 10.4677V5.36648Z" fill="currentColor"></path></svg>