<svg width="67" height="18" viewBox="0 0 67 18" fill="none" xmlns="http://www.w3.org/2000/svg"><path d="M33.396 15H25.08V13.326L30.156 8.286C30.54 7.89 30.87 7.476 31.146 7.044C31.422 6.612 31.56 6.126 31.56 5.586C31.56 5.25 31.5 4.95 31.38 4.686C31.26 4.41 31.098 4.176 30.894 3.984C30.69 3.792 30.45 3.648 30.174 3.552C29.898 3.444 29.604 3.39 29.292 3.39C28.644 3.39 28.11 3.6 27.69 4.02C27.27 4.428 27.006 4.956 26.898 5.604L25.188 5.316C25.26 4.836 25.41 4.392 25.638 3.984C25.878 3.564 26.178 3.204 26.538 2.904C26.898 2.592 27.312 2.352 27.78 2.184C28.26 2.016 28.77 1.932 29.31 1.932C29.838 1.932 30.342 2.01 30.822 2.166C31.314 2.322 31.746 2.55 32.118 2.85C32.49 3.15 32.784 3.528 33 3.984C33.228 4.44 33.342 4.962 33.342 5.55C33.342 5.958 33.288 6.336 33.18 6.684C33.072 7.032 32.922 7.362 32.73 7.674C32.55 7.986 32.334 8.286 32.082 8.574C31.83 8.85 31.566 9.126 31.29 9.402L27.15 13.434H33.396V15ZM40.0691 1.932C40.8251 1.932 41.4731 2.106 42.0131 2.454C42.5651 2.802 43.0151 3.282 43.3631 3.894C43.7231 4.494 43.9871 5.202 44.1551 6.018C44.3231 6.834 44.4071 7.704 44.4071 8.628C44.4071 9.564 44.3231 10.44 44.1551 11.256C43.9871 12.06 43.7231 12.768 43.3631 13.38C43.0151 13.98 42.5651 14.454 42.0131 14.802C41.4731 15.15 40.8251 15.324 40.0691 15.324C39.3131 15.324 38.6591 15.15 38.1071 14.802C37.5551 14.454 37.0991 13.98 36.7391 13.38C36.3911 12.768 36.1331 12.06 35.9651 11.256C35.7971 10.44 35.7131 9.564 35.7131 8.628C35.7131 7.704 35.7971 6.834 35.9651 6.018C36.1331 5.202 36.3911 4.494 36.7391 3.894C37.0991 3.282 37.5551 2.802 38.1071 2.454C38.6591 2.106 39.3131 1.932 40.0691 1.932ZM40.0691 3.39C39.5411 3.39 39.1091 3.564 38.7731 3.912C38.4371 4.248 38.1731 4.68 37.9811 5.208C37.8011 5.724 37.6751 6.288 37.6031 6.9C37.5311 7.512 37.4951 8.088 37.4951 8.628C37.4951 9.168 37.5311 9.744 37.6031 10.356C37.6751 10.968 37.8011 11.532 37.9811 12.048C38.1731 12.564 38.4371 12.996 38.7731 13.344C39.1091 13.68 39.5411 13.848 40.0691 13.848C40.5851 13.848 41.0051 13.68 41.3291 13.344C41.6651 12.996 41.9291 12.564 42.1211 12.048C42.3131 11.532 42.4451 10.968 42.5171 10.356C42.5891 9.744 42.6251 9.168 42.6251 8.628C42.6251 8.088 42.5891 7.512 42.5171 6.9C42.4451 6.288 42.3131 5.724 42.1211 5.208C41.9291 4.68 41.6651 4.248 41.3291 3.912C41.0051 3.564 40.5851 3.39 40.0691 3.39ZM53.5282 10.644H55.3642V12.138H53.5282V15H51.8362V12.138H45.9682V10.554L51.3862 2.256H53.5282V10.644ZM51.8362 4.254H51.8002L47.7682 10.644H51.8362V4.254ZM62.6852 9.852L62.6672 9.834C62.4872 9.942 62.2412 10.026 61.9292 10.086C61.7852 10.11 61.6352 10.134 61.4792 10.158C61.3352 10.17 61.1972 10.176 61.0652 10.176C60.5012 10.176 59.9792 10.08 59.4992 9.888C59.0192 9.684 58.5992 9.408 58.2392 9.06C57.8792 8.7 57.5972 8.274 57.3932 7.782C57.1892 7.29 57.0872 6.756 57.0872 6.18C57.0872 5.544 57.1952 4.968 57.4112 4.452C57.6392 3.924 57.9512 3.474 58.3472 3.102C58.7432 2.73 59.2112 2.442 59.7512 2.238C60.2912 2.034 60.8732 1.932 61.4972 1.932C62.1212 1.932 62.7032 2.04 63.2432 2.256C63.7832 2.46 64.2452 2.748 64.6292 3.12C65.0252 3.492 65.3312 3.936 65.5472 4.452C65.7752 4.968 65.8892 5.526 65.8892 6.126C65.8892 6.822 65.7752 7.452 65.5472 8.016C65.3192 8.58 65.0252 9.156 64.6652 9.744L61.3352 15H59.2652L62.6852 9.852ZM64.1432 6.108C64.1432 5.736 64.0772 5.388 63.9452 5.064C63.8252 4.728 63.6452 4.44 63.4052 4.2C63.1772 3.948 62.9012 3.75 62.5772 3.606C62.2532 3.462 61.8932 3.39 61.4972 3.39C61.1012 3.39 60.7412 3.462 60.4172 3.606C60.0932 3.738 59.8112 3.924 59.5712 4.164C59.3432 4.404 59.1632 4.692 59.0312 5.028C58.9112 5.364 58.8512 5.73 58.8512 6.126C58.8512 6.51 58.9112 6.864 59.0312 7.188C59.1632 7.512 59.3432 7.794 59.5712 8.034C59.7992 8.274 60.0752 8.46 60.3992 8.592C60.7232 8.724 61.0832 8.79 61.4792 8.79C61.8752 8.79 62.2352 8.724 62.5592 8.592C62.8952 8.46 63.1772 8.274 63.4052 8.034C63.6452 7.794 63.8252 7.512 63.9452 7.188C64.0772 6.864 64.1432 6.504 64.1432 6.108Z" fill="#2A2A33"></path><path d="M15.7846 0H7.33957C7.08451 0 6.83994 0.101514 6.65982 0.2821L0.485062 6.47362C0.174437 6.78509 0 7.20703 0 7.64691V16.8923C0 17.5041 0.495931 18 1.10769 18H10.4487C10.8862 18 11.306 17.8274 11.6171 17.5198L17.7151 11.4881C17.8974 11.3077 18 11.062 18 10.8055V2.21326C18 0.989738 17.0081 0 15.7846 0Z" fill="#F66F75"></path><path d="M0.375003 17.7231C0.57027 17.8954 0.826769 18 1.10769 18H10.4487C10.8862 18 11.306 17.8274 11.6171 17.5198L17.7151 11.4881C17.8974 11.3077 18 11.062 18 10.8055V2.21326C18 1.68995 17.8186 1.2094 17.5151 0.830769C15.0379 2.34415 0.375003 17.7231 0.375003 17.7231Z" fill="#5053F0"></path><path d="M16.2385 1.34277C16.5444 1.34277 16.7924 1.59074 16.7924 1.89662V9.80639C16.7924 10.0885 16.6847 10.3601 16.4913 10.5655L14.6782 12.492H6.07215L4.70901 13.9051L4.70901 16.6148C4.70901 16.7678 4.58503 16.8918 4.43209 16.8918H1.38593C1.23299 16.8918 1.10901 16.7678 1.10901 16.6148V13.5687C1.10901 13.4157 1.23299 13.2918 1.38593 13.2918H3.76162L5.50878 11.4806V1.89662C5.50878 1.59074 5.75674 1.34277 6.06263 1.34277H16.2385Z" fill="white"></path></svg>