<svg width="24" height="17" viewBox="0 0 17 17" fill="none" xmlns="http://www.w3.org/2000/svg"><path d="M12.4999 12.5C13.8595 11.1404 16 11.0765 16 11.0765L11.0765 16C11.0765 16 11.1403 13.8596 12.4999 12.5Z" fill="currentColor"></path><path fill-rule="evenodd" clip-rule="evenodd" d="M8.75 1.5C4.74594 1.5 1.5 4.74594 1.5 8.75C1.5 12.7541 4.74594 16 8.75 16C9.55876 16 10.3356 15.8678 11.0608 15.6241L15.6334 11.0329C15.8711 10.3157 16 9.54839 16 8.75C16 4.74594 12.7541 1.5 8.75 1.5ZM0.5 8.75C0.5 4.19365 4.19365 0.5 8.75 0.5C13.3063 0.5 17 4.19365 17 8.75C17 9.70155 16.8387 10.6165 16.5415 11.4683L16.504 11.5758L11.6073 16.4925L11.5 16.5304C10.6392 16.8347 9.71335 17 8.75 17C4.19365 17 0.5 13.3063 0.5 8.75Z" fill="currentColor"></path></svg>