<svg width="18" height="18" viewBox="0 0 18 18" fill="none" xmlns="http://www.w3.org/2000/svg"><path fill-rule="evenodd" clip-rule="evenodd" d="M14.9839 3.01588C15.7607 3.79316 16.3698 4.69815 16.7965 5.70533C17.2378 6.74899 17.4621 7.86017 17.4621 9.00054C17.4621 10.1409 17.2378 11.2503 16.7965 12.2939C16.3698 13.3029 15.7607 14.2061 14.9839 14.9834C14.207 15.7588 13.3025 16.3682 12.294 16.7952C11.2509 17.2367 10.1422 17.4612 9.0006 17.4612C7.85902 17.4612 6.75027 17.2367 5.70717 16.7952C4.69871 16.3701 3.7942 15.7606 3.01734 14.9834C2.24049 14.2061 1.6314 13.3011 1.20468 12.2939C0.763366 11.2503 0.539062 10.1391 0.539062 8.99871C0.539062 7.85834 0.763366 6.74899 1.20468 5.70533C1.6314 4.69633 2.24049 3.79316 3.01734 3.01588C3.7942 2.24043 4.69871 1.63102 5.70717 1.20406C6.75027 0.762511 7.85902 0.538086 9.0006 0.538086C10.1422 0.538086 11.2509 0.762511 12.294 1.20406C13.3025 1.62919 14.207 2.2386 14.9839 3.01588ZM14.7569 12.9833C15.4791 11.9451 15.9259 10.7008 15.9934 9.35605L12.8914 7.2158L13.0555 7.05159C13.2233 6.8819 13.2233 6.60821 13.0555 6.44035C12.9716 6.35642 12.8604 6.31445 12.751 6.31445C12.6416 6.31445 12.5303 6.35642 12.4464 6.44035L12.1747 6.71221C11.965 6.52063 11.7006 6.42575 11.4362 6.42575C11.1553 6.42575 10.8745 6.53158 10.6593 6.74688C10.2308 7.17566 10.2308 7.87083 10.6593 8.29961L14.7569 12.9833ZM4.95112 7.04963C4.78334 6.88177 4.78334 6.60808 4.95112 6.4384C5.035 6.35447 5.14624 6.3125 5.25566 6.3125C5.3669 6.3125 5.47631 6.35447 5.5602 6.4384L5.83192 6.71026C6.04163 6.5205 6.30606 6.4238 6.57048 6.4238C6.85131 6.4238 7.13215 6.53145 7.34734 6.74493C7.77588 7.17371 7.77588 7.86888 7.34734 8.29766L3.24604 12.9869C2.52389 11.9468 2.07529 10.7043 2.00781 9.35957L5.11706 7.21567L4.95112 7.04963ZM4.0006 13.9C5.27165 15.1954 7.04237 16.0001 9.00093 16.0001C10.9613 16.0001 12.7339 15.1954 14.0049 13.8945L9.80331 9.09218C9.60272 8.88418 9.44771 8.64333 9.33829 8.37512C9.22888 8.10326 9.17235 7.81679 9.17235 7.52304C9.17235 7.22928 9.22888 6.94282 9.33829 6.67095C9.45318 6.38996 9.62095 6.13635 9.83614 5.92104C10.0513 5.70392 10.3048 5.53788 10.5856 5.42293C10.8574 5.31346 11.1437 5.25689 11.4373 5.25689C11.6306 5.25689 11.8202 5.28244 12.0044 5.32988C12.2324 5.20945 12.4877 5.14559 12.7521 5.14559C13.1788 5.14559 13.58 5.31163 13.8827 5.61451C14.2092 5.93929 14.3642 6.37354 14.3496 6.80232L15.9124 7.8843C15.3781 4.54895 12.4858 2 8.9991 2C5.50872 2 2.61648 4.55078 2.08398 7.88978L3.65776 6.80415C3.64317 6.37719 3.79818 5.94294 4.1246 5.61634C4.42732 5.31346 4.82851 5.14742 5.25524 5.14742C5.52148 5.14742 5.77497 5.21128 6.00292 5.3317C6.1871 5.28244 6.37858 5.25872 6.57188 5.25872C6.86548 5.25872 7.15179 5.31528 7.42351 5.42476C7.70434 5.53971 7.95782 5.70757 8.17301 5.92287C8.39002 6.13817 8.55597 6.39179 8.67085 6.67278C8.78027 6.94464 8.8368 7.2311 8.8368 7.52486C8.8368 7.81862 8.78027 8.10508 8.67085 8.37694C8.56326 8.64333 8.40643 8.886 8.20583 9.09401L4.0006 13.9Z" fill="currentColor"></path></svg>