<svg width="22" height="22" viewBox="0 0 22 22" fill="none" xmlns="http://www.w3.org/2000/svg"><rect x="1" y="4" width="20" height="14" rx="1" fill="currentColor"></rect><path fill-rule="evenodd" clip-rule="evenodd" d="M3.5 6C3.22386 6 3 6.22386 3 6.5V7.5C3 7.77614 3.22386 8 3.5 8H4.5C4.77614 8 5 7.77614 5 7.5V6.5C5 6.22386 4.77614 6 4.5 6H3.5ZM3.5 10C3.22386 10 3 10.2239 3 10.5V11.5C3 11.7761 3.22386 12 3.5 12H6.5C6.77614 12 7 11.7761 7 11.5V10.5C7 10.2239 6.77614 10 6.5 10H3.5ZM3 14.5C3 14.2239 3.22386 14 3.5 14H10.5C10.7761 14 11 14.2239 11 14.5V15.5C11 15.7761 10.7761 16 10.5 16H3.5C3.22386 16 3 15.7761 3 15.5V14.5ZM9.5 10C9.22386 10 9 10.2239 9 10.5V11.5C9 11.7761 9.22386 12 9.5 12H10.5C10.7761 12 11 11.7761 11 11.5V10.5C11 10.2239 10.7761 10 10.5 10H9.5ZM7 6.5C7 6.22386 7.22386 6 7.5 6H8.5C8.77614 6 9 6.22386 9 6.5V7.5C9 7.77614 8.77614 8 8.5 8H7.5C7.22386 8 7 7.77614 7 7.5V6.5ZM13.5 10C13.2239 10 13 10.2239 13 10.5V11.5C13 11.7761 13.2239 12 13.5 12H14.5C14.7761 12 15 11.7761 15 11.5V10.5C15 10.2239 14.7761 10 14.5 10H13.5ZM11 6.5C11 6.22386 11.2239 6 11.5 6H12.5C12.7761 6 13 6.22386 13 6.5V7.5C13 7.77614 12.7761 8 12.5 8H11.5C11.2239 8 11 7.77614 11 7.5V6.5ZM15.5 6C15.2239 6 15 6.22386 15 6.5V7.5C15 7.77614 15.2239 8 15.5 8H16.5C16.7761 8 17 7.77614 17 7.5V6.5C17 6.22386 16.7761 6 16.5 6H15.5ZM17 10.5C17 10.2239 17.2239 10 17.5 10H18.5C18.7761 10 19 10.2239 19 10.5V15.5C19 15.7761 18.7761 16 18.5 16H17H13.5C13.2239 16 13 15.7761 13 15.5V14.5C13 14.2239 13.2239 14 13.5 14H17V10.5Z" fill="white"></path></svg>