<svg width="22" height="22" viewBox="0 0 22 22" fill="none" xmlns="http://www.w3.org/2000/svg"><path fill-rule="evenodd" clip-rule="evenodd" d="M3.93696 6.25329L6.25421 3.93601C6.57377 3.61568 6.57316 3.09694 6.25284 2.77737C5.93252 2.45779 5.41379 2.4584 5.09422 2.77873L2.7797 5.09328C2.45938 5.41286 2.45877 5.9316 2.77834 6.25192C3.09791 6.57225 3.61664 6.57286 3.93696 6.25329ZM3.35742 11.8182C3.35742 7.59746 6.77898 4.17584 10.9997 4.17584C13.0265 4.17584 14.9704 4.98102 16.4036 6.41425C17.8368 7.84747 18.642 9.79134 18.642 11.8182C18.642 16.039 15.2204 19.4606 10.9997 19.4606C6.77898 19.4606 3.35742 16.039 3.35742 11.8182ZM4.99609 11.8183C4.99609 15.1347 7.68446 17.8231 11.0007 17.8231C12.5933 17.8231 14.1206 17.1904 15.2467 16.0643C16.3727 14.9382 17.0054 13.4109 17.0054 11.8183C17.0054 8.50201 14.317 5.8136 11.0007 5.8136C7.68446 5.8136 4.99609 8.50201 4.99609 11.8183ZM16.3273 2.53809C16.5449 2.53809 16.7536 2.62475 16.9073 2.77892L19.2218 5.09347C19.5421 5.41305 19.5427 5.93179 19.2231 6.25211C18.9036 6.57244 18.3848 6.57305 18.0645 6.25348L15.7473 3.9362C15.428 3.61651 15.428 3.09861 15.7473 2.77892C15.9009 2.62475 16.1096 2.53809 16.3273 2.53809Z" fill="currentColor"></path><path d="M12.8279 11.2702H11.5764V10.0187C11.5764 9.62603 11.2581 9.30768 10.8654 9.30768C10.4726 9.30768 10.1543 9.62603 10.1543 10.0187V11.9812C10.1543 12.3739 10.4726 12.6923 10.8654 12.6923H12.8279C13.2206 12.6923 13.5389 12.3739 13.5389 11.9812C13.5389 11.5885 13.2206 11.2702 12.8279 11.2702Z" fill="currentColor"></path></svg>