<svg width="28" height="28" viewBox="0 0 28 28" fill="none" xmlns="http://www.w3.org/2000/svg"><path fill-rule="evenodd" clip-rule="evenodd" d="M13.0704 4.2636C12.8414 4.50124 12.65 4.89431 12.65 5.50001V12C12.65 12.3003 12.4442 12.5616 12.1523 12.6319C11.8603 12.7023 11.5581 12.5634 11.4213 12.296C10.8001 11.0815 10.414 10.0387 10.1231 9.2531C10.0174 8.96762 9.92428 8.71608 9.837 8.50259C9.66447 8.08057 9.52763 7.83443 9.38876 7.68312C9.27534 7.55954 9.14709 7.48352 8.91819 7.45447C8.40119 7.38886 8.03332 7.58762 7.81917 7.90035C7.59515 8.22748 7.49286 8.75443 7.70418 9.39308C7.96575 10.1835 9.37454 14.2793 10.5822 16.7109C10.7066 16.9615 10.6568 17.2636 10.4584 17.4609C10.26 17.6582 9.95767 17.7064 9.70777 17.5806C9.49655 17.4743 9.26408 17.3443 9.01423 17.2045C8.424 16.8744 7.73677 16.4901 7.00369 16.2357C6.49867 16.0605 6.05025 15.98 5.68307 16.0176C5.34273 16.0524 5.06513 16.187 4.83931 16.4901C4.63929 16.7585 4.62673 16.9613 4.67096 17.1394C4.72469 17.3557 4.88453 17.6104 5.163 17.8955C5.43559 18.1746 5.77613 18.4369 6.11719 18.6772C6.24399 18.7665 6.38484 18.8619 6.52122 18.9542C6.7125 19.0837 6.89498 19.2073 7.01757 19.2998C8.68384 20.558 9.87117 21.9435 10.8484 23.0839C10.9258 23.1742 11.0019 23.263 11.0768 23.35L18.1203 23.35C18.1311 23.3083 18.1426 23.2642 18.1548 23.218C18.2565 22.8301 18.4019 22.2886 18.5763 21.6738C18.9236 20.4499 19.3923 18.9137 19.8666 17.7201C20.615 15.8365 21.5739 14.5939 22.3619 13.5727C22.6587 13.1881 22.9313 12.8348 23.1592 12.4906C23.458 12.0394 23.3667 11.6635 23.1529 11.4175C22.9161 11.145 22.4968 10.9968 22.0619 11.1427C21.6915 11.267 21.3182 11.5402 20.8279 12.0817C20.3742 12.5828 19.871 13.2544 19.2038 14.1449C19.1439 14.2248 19.0826 14.3065 19.02 14.39C18.8344 14.6375 18.5 14.7199 18.2207 14.5869C17.9413 14.454 17.7944 14.1425 17.8694 13.8424C18.1234 12.8263 18.4124 11.8521 18.6809 10.9551C18.6981 10.8977 18.7152 10.8406 18.7322 10.7839C18.9825 9.9484 19.2097 9.19012 19.3783 8.5114C19.579 7.70298 19.404 7.18299 19.2157 6.97575C19.1309 6.88234 19.0379 6.83999 18.9304 6.8346C18.8138 6.82875 18.6226 6.86499 18.3622 7.03972C18.3504 7.0477 18.2974 7.09169 18.2132 7.21437C18.1333 7.33084 18.0454 7.4883 17.9524 7.68608C17.7662 8.08183 17.5824 8.58882 17.4099 9.14012C17.0657 10.24 16.7878 11.4465 16.6347 12.1401C16.5632 12.464 16.2593 12.6821 15.9296 12.6462C15.5998 12.6102 15.35 12.3317 15.35 12C15.35 11.3634 15.3192 10.3266 15.2857 9.1994C15.2832 9.11457 15.2806 9.02922 15.2781 8.94349C15.2421 7.72771 15.2056 6.44079 15.2056 5.50001C15.2056 4.8943 15.0142 4.50124 14.7852 4.2636C14.5517 4.02143 14.2413 3.90001 13.9278 3.90001C13.6143 3.90001 13.3039 4.02143 13.0704 4.2636ZM15.7211 3.36141C16.215 3.87377 16.5056 4.60571 16.5056 5.50001C16.5056 6.1105 16.5214 6.87526 16.5427 7.6784C16.6179 7.48662 16.6958 7.30328 16.7761 7.13271C16.8872 6.89642 17.0087 6.67208 17.1413 6.47882C17.2696 6.29176 17.4325 6.0981 17.6378 5.96029C18.0697 5.67041 18.5335 5.51306 18.9955 5.53623C19.4666 5.55985 19.8759 5.76914 20.1779 6.10159C20.7635 6.74608 20.9007 7.77472 20.64 8.82472C20.4703 9.50793 20.2456 10.2623 20.0086 11.0532C20.5117 10.5228 21.0276 10.1186 21.6484 9.91024C22.598 9.59155 23.5632 9.90791 24.1341 10.5647C24.7279 11.2478 24.8673 12.2658 24.2431 13.2084C23.9383 13.6687 23.6176 14.0833 23.2919 14.5045C22.5355 15.4827 21.7517 16.4962 21.0747 18.2002C20.6259 19.3296 20.1718 20.8134 19.8269 22.0286C19.6553 22.6334 19.5123 23.1663 19.4122 23.5479C19.3622 23.7386 19.3229 23.8913 19.2962 23.9962L19.2659 24.1161L19.2582 24.1468L19.2559 24.1562C19.1839 24.446 18.9236 24.65 18.6249 24.65L10.7794 24.65C10.5912 24.65 10.4123 24.5684 10.2888 24.4264C10.1456 24.2616 10.001 24.0931 9.85379 23.9215C8.87409 22.7796 7.78041 21.5048 6.2342 20.3373C6.12562 20.2553 5.99951 20.1704 5.84453 20.0661C5.71007 19.9756 5.55388 19.8705 5.36854 19.74C5.006 19.4846 4.58898 19.1683 4.23302 18.8039C3.88293 18.4455 3.5432 17.9918 3.4093 17.4528C3.26591 16.8755 3.37766 16.276 3.79682 15.7134C4.26327 15.0873 4.88822 14.7921 5.55077 14.7243C6.18646 14.6593 6.84126 14.8034 7.42982 15.0076C7.82746 15.1455 8.23169 15.3266 8.61172 15.515C7.6106 13.151 6.67524 10.4217 6.47 9.80146C6.15279 8.84284 6.25696 7.8808 6.74655 7.16585C7.24599 6.4365 8.09885 6.04007 9.08185 6.16482C9.60295 6.23095 10.0167 6.44479 10.3465 6.80409C10.6508 7.13566 10.8583 7.56541 11.0403 8.01066C11.1432 8.26227 11.243 8.5306 11.35 8.8196V5.50001C11.35 4.60571 11.6406 3.87377 12.1345 3.36142C12.624 2.85358 13.2774 2.60001 13.9278 2.60001C14.5782 2.60001 15.2317 2.85358 15.7211 3.36141Z" fill="currentColor"></path></svg>