<svg width="24" height="20" viewBox="0 0 20 20" fill="none" xmlns="http://www.w3.org/2000/svg"><path d="M13.072 12.46L17.5 10L10 17.5L12.9576 12.5707C12.9854 12.5244 13.0248 12.4862 13.072 12.46Z" fill="currentColor"></path><path fill-rule="evenodd" clip-rule="evenodd" d="M9.64645 1.64645C9.84171 1.45118 10.1583 1.45118 10.3536 1.64645L18.3536 9.64645C18.5488 9.84171 18.5488 10.1583 18.3536 10.3536L10.3536 18.3536C10.1583 18.5488 9.84171 18.5488 9.64645 18.3536L1.64645 10.3536C1.45118 10.1583 1.45118 9.84171 1.64645 9.64645L9.64645 1.64645ZM2.70711 10L10 17.2929L17.2929 10L10 2.70711L2.70711 10Z" fill="currentColor"></path></svg>