<svg width="24" height="20" viewBox="0 0 20 20" fill="none" xmlns="http://www.w3.org/2000/svg"><path fill-rule="evenodd" clip-rule="evenodd" d="M2.00004 6.03845C2.00004 4.91264 2.91269 4 4.0385 4H15.9616C17.0874 4 18 4.91265 18 6.03846V10.5C18 10.642 17.9396 10.7773 17.834 10.8721L14.3724 13.9787C13.9983 14.3143 13.5134 14.5 13.0109 14.5H7.20836L4.17063 17.5644C3.37268 18.3694 2 17.8043 2 16.6708L2.00004 6.03845ZM4.0385 5C3.46497 5 3.00004 5.46493 3.00004 6.03846L3 16.6708C3 16.9113 3.29117 17.0311 3.46044 16.8604L6.64487 13.648C6.73876 13.5533 6.8666 13.5 6.99997 13.5H13.0109C13.2669 13.5 13.5139 13.4054 13.7045 13.2344L17 10.2769V6.03846C17 5.46494 16.5351 5 15.9616 5H4.0385Z" fill="currentColor"></path><path d="M13.3077 10H17.5L13 14V10.3077C13 10.1378 13.1378 10 13.3077 10Z" fill="currentColor"></path></svg>