<svg width="18" height="21" viewBox="0 0 18 21" fill="none" xmlns="http://www.w3.org/2000/svg"><path fill-rule="evenodd" clip-rule="evenodd" d="M2.5 4C2.5 3.44772 2.94771 3 3.5 3H17C17.5523 3 18 3.44771 18 4V20C18 20.5523 17.5523 21 17 21H3.5C2.94772 21 2.5 20.5523 2.5 20V4ZM3.5 4V20H17V4L3.5 4Z" fill="currentColor"></path><path fill-rule="evenodd" clip-rule="evenodd" d="M15.5 1.5C15.5 0.947715 15.0523 0.5 14.5 0.5H1C0.447715 0.5 0 0.947715 0 1.5V17.5C0 18.0523 0.447715 18.5 1 18.5H3C3.27614 18.5 3.5 18.2761 3.5 18C3.5 17.7239 3.27614 17.5 3 17.5H1V1.5H14.5V3.5C14.5 3.77614 14.7239 4 15 4C15.2761 4 15.5 3.77614 15.5 3.5V1.5Z" fill="currentColor"></path><path fill-rule="evenodd" clip-rule="evenodd" d="M13.438 6.06138C13.7047 5.98991 13.9789 6.1482 14.0504 6.41493L14.7824 9.14698C14.8167 9.27507 14.7988 9.41155 14.7325 9.52639L11.7325 14.7225C11.5944 14.9617 11.2886 15.0436 11.0495 14.9056L7.58536 12.9056C7.34621 12.7675 7.26427 12.4617 7.40234 12.2225L10.4023 7.02639C10.4686 6.91155 10.5779 6.82775 10.7059 6.79343L13.438 6.06138ZM11.1645 7.70626L8.51837 12.2895L11.1164 13.7895L13.7629 9.20575L13.2139 7.15671L11.1645 7.70626Z" fill="currentColor"></path><path fill-rule="evenodd" clip-rule="evenodd" d="M12.1971 8.99121C12.4363 9.12928 12.5182 9.43508 12.3801 9.67422L11.3801 11.4063C11.2421 11.6454 10.9363 11.7274 10.6971 11.5893C10.458 11.4512 10.376 11.1454 10.5141 10.9063L11.5141 9.17422C11.6522 8.93508 11.958 8.85314 12.1971 8.99121Z" fill="currentColor"></path><path fill-rule="evenodd" clip-rule="evenodd" d="M13.5741 12.5994L13.0665 10.7051L14.0324 10.4463L14.5814 12.4953C14.6084 12.596 14.6033 12.7026 14.5667 12.8002L13.4997 15.6482C13.4482 15.7859 13.3387 15.8939 13.2003 15.9435C13.062 15.9931 12.9088 15.9793 12.7815 15.9058L10.6164 14.6558L11.1164 13.7898L12.7703 14.7447L13.5741 12.5994Z" fill="currentColor"></path><path fill-rule="evenodd" clip-rule="evenodd" d="M8.3203 9.56623L10.2146 9.05866L9.95574 8.09274L7.9067 8.64177C7.80604 8.66875 7.71633 8.7265 7.65009 8.80695L5.71708 11.155C5.62367 11.2685 5.58491 11.4173 5.61111 11.5619C5.63731 11.7066 5.72582 11.8323 5.8531 11.9058L7.58515 12.9058L8.08515 12.0398L6.86426 11.3349L8.3203 9.56623Z" fill="currentColor"></path><path fill-rule="evenodd" clip-rule="evenodd" d="M8.91627 13.8138L9.48086 14.1397C9.39912 13.9064 9.15917 13.7679 8.91627 13.8138ZM7.01243 16.9616L7.01175 16.9558L7.01002 16.9406L7.00385 16.8847C6.99868 16.8368 6.99159 16.7684 6.98374 16.6854C6.96808 16.5199 6.9492 16.2941 6.93673 16.0556C6.92437 15.8193 6.91774 15.5604 6.92865 15.332C6.93409 15.218 6.9443 15.102 6.96302 14.9954C6.98 14.8985 7.01096 14.7658 7.08008 14.6461C7.15367 14.5186 7.25665 14.4282 7.33998 14.3674C7.42742 14.3035 7.52355 14.2505 7.61526 14.2066C7.7984 14.1189 8.00702 14.0472 8.19268 13.9917C8.3812 13.9352 8.56094 13.8911 8.6925 13.8612C8.75865 13.8461 8.81349 13.8345 8.85225 13.8265L8.89793 13.8173L8.91073 13.8148L8.91443 13.8141L8.91627 13.8138L9.48086 14.1397L9.48148 14.1415L9.48272 14.1451L9.48696 14.1574L9.50183 14.2015C9.51431 14.2391 9.53165 14.2924 9.55169 14.3572C9.59156 14.4861 9.64319 14.6639 9.68858 14.8553C9.73329 15.0439 9.77551 15.2604 9.79114 15.4629C9.79896 15.5642 9.80112 15.674 9.78956 15.7816C9.77854 15.8842 9.75175 16.0186 9.67815 16.1461C9.60904 16.2658 9.50955 16.359 9.43419 16.4221C9.35116 16.4916 9.25585 16.5585 9.15986 16.6202C8.96747 16.7438 8.73995 16.8675 8.52911 16.975C8.3164 17.0834 8.11141 17.18 7.96025 17.2492C7.88445 17.2838 7.82166 17.3119 7.77756 17.3314L7.72602 17.354L7.71202 17.3601L7.70709 17.3622L7.01243 16.9616ZM7.01243 16.9616C7.03092 17.1184 7.12233 17.2573 7.259 17.3362C7.39567 17.4151 7.56211 17.4246 7.70709 17.3622L7.01243 16.9616ZM7.94394 16.1498C7.98706 16.1285 8.03092 16.1065 8.07503 16.084C8.27323 15.983 8.46724 15.8766 8.61913 15.779C8.69528 15.73 8.75279 15.6884 8.79205 15.6555C8.79378 15.6541 8.79543 15.6527 8.797 15.6513C8.79823 15.6246 8.7978 15.5877 8.7941 15.5398C8.7842 15.4115 8.75488 15.2519 8.71556 15.086C8.70015 15.021 8.68375 14.9573 8.66733 14.8969C8.60678 14.9129 8.54339 14.9305 8.47941 14.9497C8.31609 14.9986 8.16324 15.053 8.04714 15.1086C8.0038 15.1293 7.97166 15.1474 7.94912 15.1618C7.94874 15.1638 7.94836 15.166 7.94797 15.1682C7.93912 15.2186 7.93182 15.2892 7.92751 15.3797C7.9189 15.56 7.92374 15.7812 7.93536 16.0034C7.93795 16.0528 7.94084 16.1018 7.94394 16.1498ZM7.91715 15.185L7.91872 15.1836ZM8.79288 15.6906L8.79335 15.6885Z" fill="currentColor"></path></svg>