<svg width="28" height="28" viewBox="0 0 28 28" fill="none" xmlns="http://www.w3.org/2000/svg">
	<path d="M17.5556 9.54866L5.56593 1.18028C4.85397 0.682374 3.90726 1.28226 4.00732 2.16809L5.6833 17.0752C5.78336 17.971 6.85899 18.323 7.43433 17.6471L11.2135 13.2119C11.3462 13.056 11.5233 12.944 11.7176 12.892L17.2439 11.4263C18.0848 11.2043 18.2753 10.0526 17.5556 9.54866Z" fill="currentColor">
	</path>
	<path fill-rule="evenodd" clip-rule="evenodd" d="M13.3501 16.2325C13.3501 15.1928 14.1929 14.35 15.2326 14.35C16.2722 14.35 17.1151 15.1928 17.1151 16.2325C17.1151 17.2722 16.2722 18.115 15.2326 18.115C14.1929 18.115 13.3501 17.2722 13.3501 16.2325ZM15.2326 15.65C14.9109 15.65 14.6501 15.9108 14.6501 16.2325C14.6501 16.5542 14.9109 16.815 15.2326 16.815C15.5543 16.815 15.8151 16.5542 15.8151 16.2325C15.8151 15.9108 15.5543 15.65 15.2326 15.65Z" fill="currentColor">
	</path>
	<path fill-rule="evenodd" clip-rule="evenodd" d="M13.3501 24.6131C13.3501 23.5734 14.1929 22.7306 15.2326 22.7306C16.2722 22.7306 17.1151 23.5734 17.1151 24.6131C17.1151 25.6528 16.2722 26.4956 15.2326 26.4956C14.1929 26.4956 13.3501 25.6528 13.3501 24.6131ZM15.2326 24.0306C14.9109 24.0306 14.6501 24.2914 14.6501 24.6131C14.6501 24.9348 14.9109 25.1956 15.2326 25.1956C15.5543 25.1956 15.8151 24.9348 15.8151 24.6131C15.8151 24.2914 15.5543 24.0306 15.2326 24.0306Z" fill="currentColor">
	</path>
	<path fill-rule="evenodd" clip-rule="evenodd" d="M21.731 16.2325C21.731 15.1928 22.5738 14.35 23.6134 14.35C24.6531 14.35 25.4959 15.1928 25.4959 16.2325C25.4959 17.2722 24.6531 18.115 23.6134 18.115C22.5738 18.115 21.731 17.2722 21.731 16.2325ZM23.6134 15.65C23.2917 15.65 23.031 15.9108 23.031 16.2325C23.031 16.5542 23.2917 16.815 23.6134 16.815C23.9351 16.815 24.1959 16.5542 24.1959 16.2325C24.1959 15.9108 23.9351 15.65 23.6134 15.65Z" fill="currentColor">
	</path>
	<path fill-rule="evenodd" clip-rule="evenodd" d="M21.731 24.614C21.731 23.5743 22.5738 22.7315 23.6134 22.7315C24.6531 22.7315 25.4959 23.5743 25.4959 24.614C25.4959 25.6537 24.6531 26.4965 23.6134 26.4965C22.5738 26.4965 21.731 25.6537 21.731 24.614ZM23.6134 24.0315C23.2917 24.0315 23.031 24.2923 23.031 24.614C23.031 24.9357 23.2917 25.1965 23.6134 25.1965C23.9351 25.1965 24.1959 24.9357 24.1959 24.614C24.1959 24.2923 23.9351 24.0315 23.6134 24.0315Z" fill="currentColor">
	</path>
	<path fill-rule="evenodd" clip-rule="evenodd" d="M22.9232 16.65H16.4232V15.35H22.9232V16.65Z" fill="currentColor">
	</path>
	<path fill-rule="evenodd" clip-rule="evenodd" d="M22.4232 25.15H15.9232V23.85H22.4232V25.15Z" fill="currentColor">
	</path>
	<path fill-rule="evenodd" clip-rule="evenodd" d="M14.7732 23.5V17.5H16.0732V23.5H14.7732Z" fill="currentColor">
	</path>
	<path fill-rule="evenodd" clip-rule="evenodd" d="M23.2732 23.5V17.5H24.5732V23.5H23.2732Z" fill="currentColor">
	</path>
</svg>
